<?xml version="1.0" encoding="utf-8"?>
<!-- Generator: Circuit Diagram, cdlibrary.dll 4.0.0.0 -->
<!DOCTYPE svg PUBLIC "-//W3C//DTD SVG 1.1//EN" "http://www.w3.org/Graphics/SVG/1.1/DTD/svg11.dtd">
<svg version="1.1" width="1260" height="460" xmlns="http://www.w3.org/2000/svg">
	<line x1="510" y1="390" x2="517" y2="390" style="stroke:rgba(255, 165, 0, 255);stroke-linecap:square;stroke-width:2" />
	<path d="M 519,380 M 519,390 L 519,408 L 547,390 L 519,372 L 519,390 M 547,390 A 2,2 -5 1 1 553,390 A 2,2 -5 1 1 547,390" style="fill-opacity:0;fill:rgba(255, 165, 0, 255);stroke:rgba(255, 165, 0, 255);stroke-linecap:square;stroke-width:2" />
	<line x1="555" y1="390" x2="580" y2="390" style="stroke:rgba(255, 165, 0, 255);stroke-linecap:square;stroke-width:2" />
	<text x="1208" y="290" style="fill: rgba(255, 0, 0, 255);font-family:Arial;font-size:12px;text-anchor:start" dominant-baseline="middle" transform="rotate(0, 1208, 290)">pass</text>
	<line x1="1150" y1="290" x2="1197" y2="290" style="stroke:rgba(255, 0, 0, 255);stroke-linecap:square;stroke-width:2" />
	<ellipse cx="1200" cy="290" rx="3" ry="3" style="fill-opacity:0;fill:rgba(255, 0, 0, 255);stroke:rgba(255, 0, 0, 255);stroke-width:2" />
	<line x1="1020" y1="200" x2="1020" y2="270" style="stroke:rgba(100, 149, 237, 255);stroke-linecap:square;stroke-width:2" />
	<line x1="1020" y1="270" x2="1070" y2="270" style="stroke:rgba(100, 149, 237, 255);stroke-linecap:square;stroke-width:2" />
	<line x1="940" y1="200" x2="1020" y2="200" style="stroke:rgba(100, 149, 237, 255);stroke-linecap:square;stroke-width:2" />
	<line x1="990" y1="280" x2="1050" y2="280" style="stroke:rgba(255, 0, 0, 255);stroke-linecap:square;stroke-width:2" />
	<line x1="990" y1="260" x2="990" y2="280" style="stroke:rgba(255, 0, 0, 255);stroke-linecap:square;stroke-width:2" />
	<line x1="930" y1="260" x2="990" y2="260" style="stroke:rgba(255, 0, 0, 255);stroke-linecap:square;stroke-width:2" />
	<line x1="990" y1="300" x2="990" y2="320" style="stroke:rgba(34, 139, 34, 255);stroke-linecap:square;stroke-width:2" />
	<line x1="990" y1="300" x2="1060" y2="300" style="stroke:rgba(34, 139, 34, 255);stroke-linecap:square;stroke-width:2" />
	<line x1="1020" y1="310" x2="1070" y2="310" style="stroke:rgba(255, 165, 0, 255);stroke-linecap:square;stroke-width:2" />
	<line x1="1040" y1="280" x2="1075" y2="280" style="stroke:rgb(0, 0, 0);stroke-linecap:square;stroke-width:2" />
	<line x1="1040" y1="300" x2="1075" y2="300" style="stroke:rgb(0, 0, 0);stroke-linecap:square;stroke-width:2" />
	<path d="M 1069,280 M 1069,270 Q 1089,290 1069,310 M 1068,310 Q 1103,305 1118,290 Q 1103,275 1068,270" style="fill-opacity:0;fill:rgb(0, 0, 0);stroke:rgb(0, 0, 0);stroke-linecap:square;stroke-width:2" />
	<line x1="1120" y1="290" x2="1150" y2="290" style="stroke:rgb(0, 0, 0);stroke-linecap:square;stroke-width:2" />
	<line x1="1020" y1="310" x2="1020" y2="380" style="stroke:rgba(255, 165, 0, 255);stroke-linecap:square;stroke-width:2" />
	<line x1="940" y1="320" x2="990" y2="320" style="stroke:rgba(34, 139, 34, 255);stroke-linecap:square;stroke-width:2" />
	<line x1="940" y1="380" x2="1020" y2="380" style="stroke:rgba(255, 165, 0, 255);stroke-linecap:square;stroke-width:2" />
	<line x1="860" y1="370" x2="880" y2="370" style="stroke:rgba(255, 165, 0, 255);stroke-linecap:square;stroke-width:2" />
	<line x1="860" y1="390" x2="880" y2="390" style="stroke:rgba(255, 165, 0, 255);stroke-linecap:square;stroke-width:2" />
	<path d="M 880,370 M 880,360 L 880,400 L 904,400 M 880,360 L 904,360 M 904,400 A 5,5 90 0 0 904,360" style="fill-opacity:0;fill:rgba(255, 165, 0, 255);stroke:rgba(255, 165, 0, 255);stroke-linecap:square;stroke-width:2" />
	<line x1="926" y1="380" x2="940" y2="380" style="stroke:rgba(255, 165, 0, 255);stroke-linecap:square;stroke-width:2" />
	<line x1="790" y1="370" x2="860" y2="370" style="stroke:rgba(255, 165, 0, 255);stroke-linecap:square;stroke-width:2" />
	<line x1="580" y1="390" x2="860" y2="390" style="stroke:rgba(255, 165, 0, 255);stroke-linecap:square;stroke-width:2" />
	<line x1="730" y1="380" x2="880" y2="380" style="stroke:rgba(255, 165, 0, 255);stroke-linecap:square;stroke-width:2" />
	<line x1="510" y1="280" x2="510" y2="390" style="stroke:rgba(255, 165, 0, 255);stroke-linecap:square;stroke-width:2" />
	<line x1="860" y1="310" x2="880" y2="310" style="stroke:rgba(34, 139, 34, 255);stroke-linecap:square;stroke-width:2" />
	<line x1="860" y1="330" x2="880" y2="330" style="stroke:rgba(34, 139, 34, 255);stroke-linecap:square;stroke-width:2" />
	<path d="M 880,310 M 880,300 L 880,340 L 904,340 M 880,300 L 904,300 M 904,340 A 5,5 90 0 0 904,300" style="fill-opacity:0;fill:rgba(34, 139, 34, 255);stroke:rgba(34, 139, 34, 255);stroke-linecap:square;stroke-width:2" />
	<line x1="926" y1="320" x2="940" y2="320" style="stroke:rgba(34, 139, 34, 255);stroke-linecap:square;stroke-width:2" />
	<line x1="620" y1="270" x2="620" y2="330" style="stroke:rgba(34, 139, 34, 255);stroke-linecap:square;stroke-width:2" />
	<line x1="790" y1="310" x2="860" y2="310" style="stroke:rgba(34, 139, 34, 255);stroke-linecap:square;stroke-width:2" />
	<line x1="760" y1="320" x2="880" y2="320" style="stroke:rgba(34, 139, 34, 255);stroke-linecap:square;stroke-width:2" />
	<line x1="620" y1="330" x2="860" y2="330" style="stroke:rgba(34, 139, 34, 255);stroke-linecap:square;stroke-width:2" />
	<line x1="860" y1="250" x2="880" y2="250" style="stroke:rgba(255, 0, 0, 255);stroke-linecap:square;stroke-width:2" />
	<line x1="860" y1="270" x2="880" y2="270" style="stroke:rgba(255, 0, 0, 255);stroke-linecap:square;stroke-width:2" />
	<path d="M 880,250 M 880,240 L 880,280 L 904,280 M 880,240 L 904,240 M 904,280 A 5,5 90 0 0 904,240" style="fill-opacity:0;fill:rgba(255, 0, 0, 255);stroke:rgba(255, 0, 0, 255);stroke-linecap:square;stroke-width:2" />
	<line x1="926" y1="260" x2="940" y2="260" style="stroke:rgba(255, 0, 0, 255);stroke-linecap:square;stroke-width:2" />
	<line x1="820" y1="250" x2="860" y2="250" style="stroke:rgba(255, 0, 0, 255);stroke-linecap:square;stroke-width:2" />
	<line x1="730" y1="260" x2="880" y2="260" style="stroke:rgba(255, 0, 0, 255);stroke-linecap:square;stroke-width:2" />
	<line x1="620" y1="270" x2="860" y2="270" style="stroke:rgba(255, 0, 0, 255);stroke-linecap:square;stroke-width:2" />
	<line x1="860" y1="190" x2="880" y2="190" style="stroke:rgba(100, 149, 237, 255);stroke-linecap:square;stroke-width:2" />
	<line x1="860" y1="210" x2="880" y2="210" style="stroke:rgba(100, 149, 237, 255);stroke-linecap:square;stroke-width:2" />
	<path d="M 880,190 M 880,180 L 880,220 L 904,220 M 880,180 L 904,180 M 904,220 A 5,5 90 0 0 904,180" style="fill-opacity:0;fill:rgba(100, 149, 237, 255);stroke:rgba(100, 149, 237, 255);stroke-linecap:square;stroke-width:2" />
	<line x1="926" y1="200" x2="940" y2="200" style="stroke:rgba(100, 149, 237, 255);stroke-linecap:square;stroke-width:2" />
	<line x1="820" y1="190" x2="860" y2="190" style="stroke:rgba(100, 149, 237, 255);stroke-linecap:square;stroke-width:2" />
	<line x1="760" y1="200" x2="880" y2="200" style="stroke:rgba(100, 149, 237, 255);stroke-linecap:square;stroke-width:2" />
	<line x1="730" y1="150" x2="730" y2="430" style="stroke:rgba(0, 0, 0, 255);stroke-linecap:square;stroke-width:2" />
	<line x1="820" y1="230" x2="820" y2="430" style="stroke:rgb(0, 0, 0);stroke-linecap:square;stroke-width:2" />
	<line x1="790" y1="150" x2="790" y2="430" style="stroke:rgb(0, 0, 0);stroke-linecap:square;stroke-width:2" />
	<line x1="760" y1="230" x2="760" y2="430" style="stroke:rgb(0, 0, 0);stroke-linecap:square;stroke-width:2" />
	<line x1="790" y1="80" x2="790" y2="87" style="stroke:rgb(0, 0, 0);stroke-linecap:square;stroke-width:2" />
	<path d="M 780,89 M 790,89 L 808,89 L 790,117 L 772,89 L 790,89 M 790,117 A 2,2 5 0 0 790,123 A 2,2 5 0 0 790,117 M 790,123" style="fill-opacity:0;fill:rgb(0, 0, 0);stroke:rgb(0, 0, 0);stroke-linecap:square;stroke-width:2" />
	<line x1="790" y1="125" x2="790" y2="150" style="stroke:rgb(0, 0, 0);stroke-linecap:square;stroke-width:2" />
	<line x1="730" y1="90" x2="730" y2="97" style="stroke:rgb(0, 0, 0);stroke-linecap:square;stroke-width:2" />
	<path d="M 720,99 M 730,99 L 748,99 L 730,127 L 712,99 L 730,99 M 730,127 A 2,2 5 0 0 730,133 A 2,2 5 0 0 730,127 M 730,133" style="fill-opacity:0;fill:rgb(0, 0, 0);stroke:rgb(0, 0, 0);stroke-linecap:square;stroke-width:2" />
	<line x1="730" y1="135" x2="730" y2="160" style="stroke:rgb(0, 0, 0);stroke-linecap:square;stroke-width:2" />
	<line x1="760" y1="60" x2="760" y2="230" style="stroke:rgb(0, 0, 0);stroke-linecap:square;stroke-width:2" />
	<line x1="730" y1="60" x2="730" y2="90" style="stroke:rgb(0, 0, 0);stroke-linecap:square;stroke-width:2" />
	<line x1="820" y1="30" x2="820" y2="240" style="stroke:rgb(0, 0, 0);stroke-linecap:square;stroke-width:2" />
	<line x1="790" y1="30" x2="790" y2="80" style="stroke:rgb(0, 0, 0);stroke-linecap:square;stroke-width:2" />
	<line x1="530" y1="250" x2="540" y2="250" style="stroke:rgba(100, 149, 237, 255);stroke-linecap:square;stroke-width:2" />
	<line x1="530" y1="240" x2="530" y2="250" style="stroke:rgba(100, 149, 237, 255);stroke-linecap:square;stroke-width:2" />
	<line x1="510" y1="260" x2="545" y2="260" style="stroke:rgb(0, 0, 0);stroke-linecap:square;stroke-width:2" />
	<line x1="510" y1="280" x2="545" y2="280" style="stroke:rgb(0, 0, 0);stroke-linecap:square;stroke-width:2" />
	<path d="M 539,260 M 539,250 Q 559,270 539,290 M 538,290 Q 573,285 588,270 Q 573,255 538,250" style="fill-opacity:0;fill:rgb(0, 0, 0);stroke:rgb(0, 0, 0);stroke-linecap:square;stroke-width:2" />
	<line x1="590" y1="270" x2="620" y2="270" style="stroke:rgb(0, 0, 0);stroke-linecap:square;stroke-width:2" />
	<line x1="320" y1="280" x2="340" y2="280" style="stroke:rgba(255, 165, 0, 255);stroke-linecap:square;stroke-width:2" />
	<line x1="460" y1="240" x2="467" y2="240" style="stroke:rgba(100, 149, 237, 255);stroke-linecap:square;stroke-width:2" />
	<path d="M 469,230 M 469,240 L 469,258 L 497,240 L 469,222 L 469,240 M 497,240 A 2,2 -5 1 1 503,240 A 2,2 -5 1 1 497,240" style="fill-opacity:0;fill:rgba(100, 149, 237, 255);stroke:rgba(100, 149, 237, 255);stroke-linecap:square;stroke-width:2" />
	<line x1="505" y1="240" x2="530" y2="240" style="stroke:rgba(100, 149, 237, 255);stroke-linecap:square;stroke-width:2" />
	<line x1="490" y1="260" x2="520" y2="260" style="stroke:rgba(34, 139, 34, 255);stroke-linecap:square;stroke-width:2" />
	<line x1="420" y1="260" x2="427" y2="260" style="stroke:rgba(34, 139, 34, 255);stroke-linecap:square;stroke-width:2" />
	<path d="M 429,250 M 429,260 L 429,278 L 457,260 L 429,242 L 429,260 M 457,260 A 2,2 -5 1 1 463,260 A 2,2 -5 1 1 457,260" style="fill-opacity:0;fill:rgba(34, 139, 34, 255);stroke:rgba(34, 139, 34, 255);stroke-linecap:square;stroke-width:2" />
	<line x1="465" y1="260" x2="490" y2="260" style="stroke:rgba(34, 139, 34, 255);stroke-linecap:square;stroke-width:2" />
	<line x1="450" y1="270" x2="550" y2="270" style="stroke:rgba(255, 0, 0, 255);stroke-linecap:square;stroke-width:2" />
	<line x1="350" y1="280" x2="520" y2="280" style="stroke:rgba(255, 165, 0, 255);stroke-linecap:square;stroke-width:2" />
	<line x1="380" y1="270" x2="387" y2="270" style="stroke:rgba(255, 0, 0, 255);stroke-linecap:square;stroke-width:2" />
	<path d="M 389,260 M 389,270 L 389,288 L 417,270 L 389,252 L 389,270 M 417,270 A 2,2 -5 1 1 423,270 A 2,2 -5 1 1 417,270" style="fill-opacity:0;fill:rgba(255, 0, 0, 255);stroke:rgba(255, 0, 0, 255);stroke-linecap:square;stroke-width:2" />
	<line x1="425" y1="270" x2="450" y2="270" style="stroke:rgba(255, 0, 0, 255);stroke-linecap:square;stroke-width:2" />
	<line x1="340" y1="280" x2="347" y2="280" style="stroke:rgba(255, 165, 0, 255);stroke-linecap:square;stroke-width:2" />
	<path d="M 349,270 M 349,280 L 349,298 L 377,280 L 349,262 L 349,280 M 377,280 A 2,2 -5 1 1 383,280 A 2,2 -5 1 1 377,280" style="fill-opacity:0;fill:rgba(255, 165, 0, 255);stroke:rgba(255, 165, 0, 255);stroke-linecap:square;stroke-width:2" />
	<line x1="385" y1="280" x2="410" y2="280" style="stroke:rgba(255, 165, 0, 255);stroke-linecap:square;stroke-width:2" />
	<line x1="320" y1="270" x2="390" y2="270" style="stroke:rgba(255, 0, 0, 255);stroke-linecap:square;stroke-width:2" />
	<line x1="320" y1="260" x2="420" y2="260" style="stroke:rgba(34, 139, 34, 255);stroke-linecap:square;stroke-width:2" />
	<line x1="320" y1="240" x2="460" y2="240" style="stroke:rgba(100, 149, 237, 255);stroke-linecap:square;stroke-width:2" />
	<line x1="320" y1="210" x2="860" y2="210" style="stroke:rgba(100, 149, 237, 255);stroke-linecap:square;stroke-width:2" />
	<text x="162" y="240" style="fill: rgba(0, 0, 0, 255);font-family:Arial;font-size:12px;text-anchor:end" dominant-baseline="middle" transform="rotate(0, 162, 240)">1</text>
	<line x1="173" y1="240" x2="210" y2="240" style="stroke:rgba(0, 0, 0, 255);stroke-linecap:square;stroke-width:2" />
	<ellipse cx="170" cy="240" rx="3" ry="3" style="fill-opacity:0;fill:rgba(0, 0, 0, 255);stroke:rgba(0, 0, 0, 255);stroke-width:2" />
	<text x="162" y="220" style="fill: rgba(255, 0, 0, 255);font-family:Arial;font-size:12px;text-anchor:end" dominant-baseline="middle" transform="rotate(0, 162, 220)">vote[1]</text>
	<line x1="173" y1="220" x2="210" y2="220" style="stroke:rgba(255, 0, 0, 255);stroke-linecap:square;stroke-width:2" />
	<ellipse cx="170" cy="220" rx="3" ry="3" style="fill-opacity:0;fill:rgba(255, 0, 0, 255);stroke:rgba(255, 0, 0, 255);stroke-width:2" />
	<text x="162" y="230" style="fill: rgba(255, 0, 0, 255);font-family:Arial;font-size:12px;text-anchor:end" dominant-baseline="middle" transform="rotate(0, 162, 230)">vote[0]</text>
	<line x1="173" y1="230" x2="200" y2="230" style="stroke:rgba(255, 0, 0, 255);stroke-linecap:square;stroke-width:2" />
	<ellipse cx="170" cy="230" rx="3" ry="3" style="fill-opacity:0;fill:rgba(255, 0, 0, 255);stroke:rgba(255, 0, 0, 255);stroke-width:2" />
	<text x="162" y="250" style="fill: rgba(0, 0, 0, 255);font-family:Arial;font-size:12px;text-anchor:end" dominant-baseline="middle" transform="rotate(0, 162, 250)">0</text>
	<line x1="173" y1="250" x2="200" y2="250" style="stroke:rgba(0, 0, 0, 255);stroke-linecap:square;stroke-width:2" />
	<ellipse cx="170" cy="250" rx="3" ry="3" style="fill-opacity:0;fill:rgba(0, 0, 0, 255);stroke:rgba(0, 0, 0, 255);stroke-width:2" />
	<text x="162" y="260" style="fill: rgba(0, 0, 0, 255);font-family:Arial;font-size:12px;text-anchor:end" dominant-baseline="middle" transform="rotate(0, 162, 260)">0</text>
	<line x1="173" y1="260" x2="210" y2="260" style="stroke:rgba(0, 0, 0, 255);stroke-linecap:square;stroke-width:2" />
	<ellipse cx="170" cy="260" rx="3" ry="3" style="fill-opacity:0;fill:rgba(0, 0, 0, 255);stroke:rgba(0, 0, 0, 255);stroke-width:2" />
	<text x="162" y="210" style="fill: rgba(255, 0, 0, 255);font-family:Arial;font-size:12px;text-anchor:end" dominant-baseline="middle" transform="rotate(0, 162, 210)">vote[2]</text>
	<line x1="173" y1="210" x2="200" y2="210" style="stroke:rgba(255, 0, 0, 255);stroke-linecap:square;stroke-width:2" />
	<ellipse cx="170" cy="210" rx="3" ry="3" style="fill-opacity:0;fill:rgba(255, 0, 0, 255);stroke:rgba(255, 0, 0, 255);stroke-width:2" />
	<text x="260" y="190" style="fill: rgba(0, 0, 0, 255);font-family:Arial;font-size:11px;text-anchor:middle" dominant-baseline="middle" transform="rotate(0, 260, 190)">74LS138</text>
	<rect x="210" y="200" width="100" height="90" style="fill-opacity:0;fill:rgba(0, 0, 0, 255);stroke:rgba(0, 0, 0, 255);stroke-width:2" />
	<line x1="200" y1="210" x2="210" y2="210" style="stroke:rgba(0, 0, 0, 255);stroke-linecap:square;stroke-width:2" />
	<text x="214" y="210" style="fill: rgba(0, 0, 0, 255);font-family:Arial;font-size:11px;text-anchor:start" dominant-baseline="middle" transform="rotate(0, 214, 210)">D2</text>
	<line x1="310" y1="210" x2="320" y2="210" style="stroke:rgba(0, 0, 0, 255);stroke-linecap:square;stroke-width:2" />
	<text x="306" y="210" style="fill: rgba(0, 0, 0, 255);font-family:Arial;font-size:11px;text-anchor:end" dominant-baseline="middle" transform="rotate(0, 306, 210)">Q[0]</text>
	<line x1="200" y1="220" x2="210" y2="220" style="stroke:rgba(0, 0, 0, 255);stroke-linecap:square;stroke-width:2" />
	<text x="214" y="220" style="fill: rgba(0, 0, 0, 255);font-family:Arial;font-size:11px;text-anchor:start" dominant-baseline="middle" transform="rotate(0, 214, 220)">D1</text>
	<line x1="310" y1="220" x2="320" y2="220" style="stroke:rgba(0, 0, 0, 255);stroke-linecap:square;stroke-width:2" />
	<text x="306" y="220" style="fill: rgba(0, 0, 0, 255);font-family:Arial;font-size:11px;text-anchor:end" dominant-baseline="middle" transform="rotate(0, 306, 220)">Q[1]</text>
	<line x1="200" y1="230" x2="210" y2="230" style="stroke:rgba(0, 0, 0, 255);stroke-linecap:square;stroke-width:2" />
	<text x="214" y="230" style="fill: rgba(0, 0, 0, 255);font-family:Arial;font-size:11px;text-anchor:start" dominant-baseline="middle" transform="rotate(0, 214, 230)">D0</text>
	<line x1="310" y1="230" x2="320" y2="230" style="stroke:rgba(0, 0, 0, 255);stroke-linecap:square;stroke-width:2" />
	<text x="306" y="230" style="fill: rgba(0, 0, 0, 255);font-family:Arial;font-size:11px;text-anchor:end" dominant-baseline="middle" transform="rotate(0, 306, 230)">Q[2]</text>
	<line x1="200" y1="240" x2="210" y2="240" style="stroke:rgba(0, 0, 0, 255);stroke-linecap:square;stroke-width:2" />
	<text x="214" y="240" style="fill: rgba(0, 0, 0, 255);font-family:Arial;font-size:11px;text-anchor:start" dominant-baseline="middle" transform="rotate(0, 214, 240)">G</text>
	<line x1="310" y1="240" x2="320" y2="240" style="stroke:rgba(0, 0, 0, 255);stroke-linecap:square;stroke-width:2" />
	<text x="306" y="240" style="fill: rgba(0, 0, 0, 255);font-family:Arial;font-size:11px;text-anchor:end" dominant-baseline="middle" transform="rotate(0, 306, 240)">Q[3]</text>
	<line x1="200" y1="250" x2="210" y2="250" style="stroke:rgba(0, 0, 0, 255);stroke-linecap:square;stroke-width:2" />
	<text x="214" y="250" style="fill: rgba(0, 0, 0, 255);font-family:Arial;font-size:11px;text-anchor:start" dominant-baseline="middle" transform="rotate(0, 214, 250)">G2A</text>
	<line x1="310" y1="250" x2="320" y2="250" style="stroke:rgba(0, 0, 0, 255);stroke-linecap:square;stroke-width:2" />
	<text x="306" y="250" style="fill: rgba(0, 0, 0, 255);font-family:Arial;font-size:11px;text-anchor:end" dominant-baseline="middle" transform="rotate(0, 306, 250)">Q[4]</text>
	<line x1="200" y1="260" x2="210" y2="260" style="stroke:rgba(0, 0, 0, 255);stroke-linecap:square;stroke-width:2" />
	<text x="214" y="260" style="fill: rgba(0, 0, 0, 255);font-family:Arial;font-size:11px;text-anchor:start" dominant-baseline="middle" transform="rotate(0, 214, 260)">G2B</text>
	<line x1="310" y1="260" x2="320" y2="260" style="stroke:rgba(0, 0, 0, 255);stroke-linecap:square;stroke-width:2" />
	<text x="306" y="260" style="fill: rgba(0, 0, 0, 255);font-family:Arial;font-size:11px;text-anchor:end" dominant-baseline="middle" transform="rotate(0, 306, 260)">Q[5]</text>
	<line x1="310" y1="270" x2="320" y2="270" style="stroke:rgba(0, 0, 0, 255);stroke-linecap:square;stroke-width:2" />
	<text x="306" y="270" style="fill: rgba(0, 0, 0, 255);font-family:Arial;font-size:11px;text-anchor:end" dominant-baseline="middle" transform="rotate(0, 306, 270)">Q[6]</text>
	<line x1="310" y1="280" x2="320" y2="280" style="stroke:rgba(0, 0, 0, 255);stroke-linecap:square;stroke-width:2" />
	<text x="306" y="280" style="fill: rgba(0, 0, 0, 255);font-family:Arial;font-size:11px;text-anchor:end" dominant-baseline="middle" transform="rotate(0, 306, 280)">Q[7]</text>
	<text x="82" y="60" style="fill: rgba(255, 0, 0, 255);font-family:Arial;font-size:12px;text-anchor:end" dominant-baseline="middle" transform="rotate(0, 82, 60)">vote[3]</text>
	<line x1="93" y1="60" x2="140" y2="60" style="stroke:rgba(255, 0, 0, 255);stroke-linecap:square;stroke-width:2" />
	<ellipse cx="90" cy="60" rx="3" ry="3" style="fill-opacity:0;fill:rgba(255, 0, 0, 255);stroke:rgba(255, 0, 0, 255);stroke-width:2" />
	<text x="82" y="30" style="fill: rgba(255, 0, 0, 255);font-family:Arial;font-size:12px;text-anchor:end" dominant-baseline="middle" transform="rotate(0, 82, 30)">vote[4]</text>
	<line x1="93" y1="30" x2="140" y2="30" style="stroke:rgba(255, 0, 0, 255);stroke-linecap:square;stroke-width:2" />
	<ellipse cx="90" cy="30" rx="3" ry="3" style="fill-opacity:0;fill:rgba(255, 0, 0, 255);stroke:rgba(255, 0, 0, 255);stroke-width:2" />
	<line x1="140" y1="60" x2="760" y2="60" style="stroke:rgb(0, 0, 0);stroke-linecap:square;stroke-width:2" />
	<line x1="140" y1="30" x2="820" y2="30" style="stroke:rgb(0, 0, 0);stroke-linecap:square;stroke-width:2" />
	<ellipse cx="790" cy="370" rx="2" ry="2" style="fill-opacity:1;fill:rgb(0, 0, 0);stroke:rgb(0, 0, 0);stroke-width:2" />
	<ellipse cx="730" cy="380" rx="2" ry="2" style="fill-opacity:1;fill:rgba(0, 0, 0, 255);stroke:rgba(0, 0, 0, 255);stroke-width:2" />
	<ellipse cx="510" cy="280" rx="2" ry="2" style="fill-opacity:1;fill:rgba(255, 165, 0, 255);stroke:rgba(255, 165, 0, 255);stroke-width:2" />
	<ellipse cx="620" cy="270" rx="2" ry="2" style="fill-opacity:1;fill:rgb(0, 0, 0);stroke:rgb(0, 0, 0);stroke-width:2" />
	<ellipse cx="790" cy="310" rx="2" ry="2" style="fill-opacity:1;fill:rgb(0, 0, 0);stroke:rgb(0, 0, 0);stroke-width:2" />
	<ellipse cx="760" cy="320" rx="2" ry="2" style="fill-opacity:1;fill:rgb(0, 0, 0);stroke:rgb(0, 0, 0);stroke-width:2" />
	<ellipse cx="820" cy="250" rx="2" ry="2" style="fill-opacity:1;fill:rgb(0, 0, 0);stroke:rgb(0, 0, 0);stroke-width:2" />
	<ellipse cx="730" cy="260" rx="2" ry="2" style="fill-opacity:1;fill:rgba(0, 0, 0, 255);stroke:rgba(0, 0, 0, 255);stroke-width:2" />
	<ellipse cx="820" cy="190" rx="2" ry="2" style="fill-opacity:1;fill:rgb(0, 0, 0);stroke:rgb(0, 0, 0);stroke-width:2" />
	<ellipse cx="760" cy="200" rx="2" ry="2" style="fill-opacity:1;fill:rgb(0, 0, 0);stroke:rgb(0, 0, 0);stroke-width:2" />
	<ellipse cx="730" cy="60" rx="2" ry="2" style="fill-opacity:1;fill:rgb(0, 0, 0);stroke:rgb(0, 0, 0);stroke-width:2" />
	<ellipse cx="790" cy="30" rx="2" ry="2" style="fill-opacity:1;fill:rgb(0, 0, 0);stroke:rgb(0, 0, 0);stroke-width:2" />
</svg>